<svg id="Capa_1" enable-background="new 0 0 512 512" height="512" viewBox="0 0 512 512" width="512" xmlns="http://www.w3.org/2000/svg"><g><g><g><path d="m7.494 340.865h80.769v163.628h-80.769z" fill="#62b4fd"/></g><g><path d="m68.06 340.856v133.341c0 5.579-4.523 10.102-10.102 10.102l-50.464.017v20.185l80.769-.017v-163.628z" fill="#27a2fb"/></g><g><path d="m294.765 362.069c15.342 0 27.779-12.437 27.779-27.779 0-15.342-12.437-27.779-27.779-27.779h-94.374c-8.153 0-16.186 1.974-23.41 5.753l-43.664 22.84c-7.225 3.779-15.257 5.753-23.41 5.753h-21.644v136.372h81.548c8.183 0 16.337-.994 24.28-2.961l171.005-42.344c19.035-4.713 36.286-14.865 49.649-29.216l82.233-88.115c10.224-10.98 9.92-28.085-.69-38.694-11.233-11.233-29.374-10.962-40.174.505l-83.995 85.667h-77.354z" fill="#fcd0a3"/></g><g><path d="m294.765 346.159h-88.515c-4.393 0-7.955 3.562-7.955 7.955v7.955h96.471c15.342 0 27.779-12.437 27.779-27.779 0-2.765-.41-5.434-1.162-7.955-3.422 11.464-14.041 19.824-26.618 19.824z" fill="#ffb983"/></g><g><path d="m496.289 275.898c-.776-.776-1.589-1.492-2.427-2.159 1.434 8.301-.898 17.138-7.058 23.752l-82.233 88.115c-13.363 14.351-30.614 24.503-49.649 29.216l-171.004 42.344c-7.944 1.967-16.097 2.961-24.28 2.961h-71.375v17.101h81.548c8.183 0 16.337-.994 24.28-2.961l171.005-42.344c19.035-4.713 36.286-14.865 49.649-29.216l82.233-88.115c10.225-10.981 9.92-28.085-.689-38.694z" fill="#ffb983"/></g><g><circle cx="47.857" cy="395.405" fill="#fcee56" r="13.132"/></g></g><g><g><circle cx="255.95" cy="171.149" fill="#fce25c" r="90.915"/></g><g><path d="m313.333 100.634c12.751 15.65 20.4 35.622 20.4 57.382 0 50.211-40.704 90.915-90.915 90.915-21.761 0-41.733-7.649-57.383-20.4 16.671 20.461 42.065 33.532 70.515 33.532 50.211 0 90.915-40.704 90.915-90.915 0-28.449-13.071-53.843-33.532-70.514z" fill="#fbd307"/></g><g><circle cx="255.95" cy="171.149" fill="#f9c301" r="55.559"/></g></g><g><path d="m501.592 270.595c-6.887-6.887-15.975-10.599-25.712-10.455-9.622.144-18.559 4.073-25.171 11.064l-81.74 83.366h-45.361c4.049-5.742 6.438-12.735 6.438-20.279 0-19.453-15.826-35.279-35.279-35.279h-36.762c-4.142 0-7.5 3.358-7.5 7.5s3.358 7.5 7.5 7.5h36.762c11.182 0 20.279 9.097 20.279 20.279s-9.098 20.279-20.279 20.279h-96.471c-4.142 0-7.5 3.358-7.5 7.5s3.358 7.5 7.5 7.5h173.824c2.015 0 3.944-.811 5.355-2.249l83.995-85.667c.035-.036.069-.072.104-.109 3.813-4.048 8.974-6.324 14.53-6.407 5.595-.086 10.887 2.069 14.881 6.063 7.792 7.792 8.014 20.214.509 28.273l-82.238 88.121c-12.402 13.32-28.297 22.672-45.963 27.047l-171.003 42.344c-7.348 1.819-14.911 2.742-22.478 2.742h-74.049v-121.372h14.144c9.326 0 18.624-2.285 26.886-6.607l43.665-22.839c6.126-3.205 13.019-4.898 19.934-4.898h22.47c4.142 0 7.5-3.358 7.5-7.5s-3.358-7.5-7.5-7.5h-22.47c-9.326 0-18.624 2.285-26.886 6.607l-43.665 22.839c-6.126 3.205-13.019 4.898-19.934 4.898l-102.407.014c-4.142 0-7.5 3.358-7.5 7.5v27.691c0 4.142 3.358 7.5 7.5 7.5s7.5-3.358 7.5-7.5v-20.191l65.763-.014v148.628l-65.763.014v-93.321c0-4.142-3.358-7.5-7.5-7.5s-7.5 3.358-7.5 7.5v100.821c0 4.142 3.358 7.5 7.5 7.5l80.763-.014c4.142 0 7.5-3.358 7.5-7.5v-19.756h74.048c8.781 0 17.557-1.07 26.083-3.181l171.004-42.344c20.5-5.076 38.943-15.929 53.33-31.379l82.238-88.121c13.042-14.006 12.658-35.577-.874-49.108z"/><path d="m68.489 395.405c0-11.376-9.255-20.632-20.632-20.632s-20.632 9.255-20.632 20.632 9.256 20.632 20.632 20.632 20.632-9.256 20.632-20.632zm-26.264 0c0-3.105 2.527-5.632 5.632-5.632s5.632 2.526 5.632 5.632-2.526 5.632-5.632 5.632-5.632-2.527-5.632-5.632z"/><path d="m255.95 269.563c36.22 0 67.928-19.671 85.015-48.887.07-.108.15-.207.215-.32.068-.117.122-.238.183-.357 8.27-14.403 13.003-31.084 13.003-48.85 0-54.266-44.148-98.415-98.415-98.415-54.266 0-98.415 44.148-98.415 98.415s44.148 98.414 98.414 98.414zm-68.151-50.407 17.701-10.22c3.601 4.795 7.868 9.062 12.663 12.662l-10.22 17.702c-7.809-5.517-14.627-12.335-20.144-20.144zm-7.524-83.038 17.708 10.224c-2.329 5.421-3.908 11.234-4.631 17.307h-20.462c.874-9.755 3.433-19.027 7.385-27.531zm83.175-27.567v-20.463c9.755.874 19.027 3.433 27.531 7.385l-10.224 17.708c-5.421-2.328-11.234-3.907-17.307-4.63zm-15 0c-6.073.723-11.886 2.302-17.307 4.631l-10.223-17.708c8.504-3.953 17.776-6.512 27.531-7.386v20.463zm7.5 14.539c26.5 0 48.059 21.559 48.059 48.059s-21.559 48.059-48.059 48.059-48.059-21.559-48.059-48.059 21.559-48.059 48.059-48.059zm75.676 83.089-17.709-10.224c2.329-5.421 3.907-11.234 4.631-17.307h20.464c-.875 9.756-3.434 19.028-7.386 27.531zm7.385-42.53h-20.464c-.723-6.073-2.302-11.886-4.631-17.307l17.709-10.224c3.953 8.504 6.512 17.776 7.386 27.531zm-90.561 70.097v20.463c-9.755-.874-19.027-3.433-27.531-7.386l10.224-17.708c5.422 2.329 11.235 3.907 17.307 4.631zm15 0c6.073-.723 11.885-2.302 17.307-4.631l10.224 17.709c-8.504 3.952-17.776 6.512-27.531 7.385zm-90.56-55.097h20.463c.723 6.073 2.302 11.886 4.631 17.307l-17.708 10.224c-3.953-8.505-6.512-17.776-7.386-27.531zm131.068 60.652-10.22-17.702c4.795-3.601 9.062-7.868 12.663-12.663l17.702 10.22c-5.518 7.809-12.336 14.628-20.145 20.145zm20.144-116.16-17.702 10.22c-3.601-4.795-7.867-9.062-12.662-12.663l10.22-17.701c7.808 5.517 14.627 12.335 20.144 20.144zm-116.159-20.144 10.22 17.701c-4.795 3.601-9.062 7.867-12.663 12.662l-17.701-10.22c5.517-7.807 12.335-14.626 20.144-20.143z"/><path d="m255.95 55.409c4.143 0 7.5-3.358 7.5-7.5v-40.407c0-4.142-3.357-7.5-7.5-7.5-4.142 0-7.5 3.358-7.5 7.5v40.407c0 4.142 3.358 7.5 7.5 7.5z"/><path d="m292.317 66.52c4.143 0 7.5-3.358 7.5-7.5v-30.304c0-4.142-3.357-7.5-7.5-7.5s-7.5 3.358-7.5 7.5v30.304c0 4.142 3.357 7.5 7.5 7.5z"/><path d="m219.585 66.52c4.142 0 7.5-3.358 7.5-7.5v-30.304c0-4.142-3.358-7.5-7.5-7.5s-7.5 3.358-7.5 7.5v30.304c0 4.142 3.358 7.5 7.5 7.5z"/></g></g></svg>