<?xml version="1.0" encoding="iso-8859-1"?>
<!-- Generator: Adobe Illustrator 19.0.0, SVG Export Plug-In . SVG Version: 6.00 Build 0)  -->
<svg version="1.1" id="Layer_1" xmlns="http://www.w3.org/2000/svg" xmlns:xlink="http://www.w3.org/1999/xlink" x="0px" y="0px"
	 viewBox="0 0 501.982 501.982" style="enable-background:new 0 0 501.982 501.982;" xml:space="preserve">
<g>
	<path style="fill:#C69C6D;" d="M486.089,50.931c-7.878-7.878-20.652-7.878-28.53,0l-173.93,173.93
		c6.996,0.897,13.76,4.024,19.132,9.397c5.373,5.373,8.5,12.137,9.397,19.132L486.089,79.46
		C493.965,71.582,493.965,58.809,486.089,50.931z"/>
	<path style="fill:#C1272D;" d="M312.158,253.39c-0.897-6.996-4.024-13.76-9.397-19.132c-5.373-5.373-12.137-8.499-19.132-9.397
		c-9.801-1.257-20.056,1.87-27.583,9.397L104.219,386.084c-6.44,6.44-16.918,6.44-23.358,0s-6.44-16.918,0-23.358
		c12.9-12.9,12.9-33.816,0-46.716s-33.816-12.9-46.716,0c-32.199,32.199-32.199,84.591,0,116.789
		c32.199,32.199,84.591,32.199,116.789,0L302.76,280.974C310.288,273.446,313.414,263.191,312.158,253.39z"/>
	<g>
		<circle style="fill:#D9E021;" cx="128.512" cy="256.467" r="35.807"/>
		<g>
			<path d="M493.159,43.86c-11.766-11.764-30.906-11.764-42.672,0L279.755,214.591c-11.518-0.118-22.515,4.328-30.782,12.596
				L97.148,379.013c-2.54,2.542-6.675,2.541-9.216,0c-1.226-1.226-1.901-2.862-1.901-4.607s0.675-3.382,1.901-4.608
				c8.128-8.128,12.604-18.935,12.604-30.429s-4.476-22.301-12.604-30.429c-16.778-16.777-44.078-16.778-60.858,0
				c-36.098,36.098-36.098,94.833,0,130.932c18.049,18.049,41.757,27.073,65.466,27.073c23.708,0,47.417-9.024,65.466-27.073
				l151.826-151.826c8.268-8.268,12.716-19.269,12.596-30.783L493.159,86.531C504.922,74.766,504.922,55.624,493.159,43.86z
				 M295.689,273.902L143.864,425.728c-28.3,28.302-74.347,28.301-102.647,0c-28.3-28.299-28.3-74.347,0-102.647
				c4.491-4.491,10.388-6.735,16.287-6.735c5.897,0,11.797,2.246,16.287,6.735c4.351,4.35,6.747,10.134,6.747,16.287
				s-2.396,11.937-6.747,16.287c-5.003,5.003-7.759,11.663-7.759,18.75s2.756,13.747,7.759,18.75
				c10.339,10.338,27.163,10.337,37.5,0l151.827-151.826c5.079-5.079,12.091-7.467,19.239-6.549
				c5.092,0.653,9.702,2.918,13.334,6.549c3.632,3.632,5.896,8.242,6.549,13.332c0,0.001,0,0.001,0,0.001
				C303.156,261.811,300.768,268.823,295.689,273.902z M479.016,72.389L316.174,235.23l-0.001,0.009
				c-1.766-2.894-3.884-5.594-6.343-8.052c-2.457-2.458-5.158-4.575-8.051-6.341l0.008-0.002L464.629,58.002
				c1.921-1.921,4.476-2.979,7.193-2.979s5.272,1.058,7.193,2.979C482.983,61.969,482.983,68.422,479.016,72.389z"/>
			<path d="M261.138,268.056l-12.104,12.104c-3.905,3.905-3.905,10.237,0,14.143c1.953,1.953,4.512,2.929,7.071,2.929
				c2.559,0,5.118-0.976,7.071-2.929l12.104-12.104c3.905-3.905,3.905-10.237,0-14.143
				C271.374,264.15,265.044,264.15,261.138,268.056z"/>
			<path d="M223.818,305.375l-62.537,62.537c-3.905,3.905-3.905,10.237,0,14.143c1.953,1.953,4.512,2.929,7.071,2.929
				s5.119-0.976,7.071-2.929l62.537-62.537c3.905-3.905,3.905-10.237,0-14.143C234.057,301.47,227.725,301.47,223.818,305.375z"/>
			<path d="M128.512,302.274c25.258,0,45.807-20.549,45.807-45.807s-20.549-45.807-45.807-45.807s-45.807,20.549-45.807,45.807
				C82.705,281.725,103.254,302.274,128.512,302.274z M128.512,230.66c14.23,0,25.807,11.577,25.807,25.807
				s-11.577,25.807-25.807,25.807s-25.807-11.577-25.807-25.807S114.283,230.66,128.512,230.66z"/>
		</g>
	</g>
</g>
<g>
</g>
<g>
</g>
<g>
</g>
<g>
</g>
<g>
</g>
<g>
</g>
<g>
</g>
<g>
</g>
<g>
</g>
<g>
</g>
<g>
</g>
<g>
</g>
<g>
</g>
<g>
</g>
<g>
</g>
</svg>
