<svg id="Capa_1" enable-background="new 0 0 512 512" height="512" viewBox="0 0 512 512" width="512" xmlns="http://www.w3.org/2000/svg"><g><g><path d="m102.469 437.232v74.768h106.224v-117.545z" fill="#ffb655"/><path d="m190.026 347.098-70.498-70.498-11.22 11.22c-12.445 12.445-12.445 32.622 0 45.067l23.916 23.916-18.814 18.814-64.676-64.677v-59.334c0-17.6-14.267-31.867-31.867-31.867h-16.867v117.601l99.892 99.892c24.89 24.89 65.244 24.89 90.134 0 24.89-24.89 24.89-65.245 0-90.134z" fill="#864927"/><g><path d="m409.531 437.232v74.768h-106.224v-117.545z" fill="#e06a50"/></g><path d="m321.974 347.098 70.498-70.498 11.22 11.22c12.445 12.445 12.445 32.622 0 45.067l-23.916 23.916 18.814 18.814 64.676-64.676v-59.334c0-17.6 14.267-31.867 31.867-31.867h16.867v117.6l-99.892 99.892c-24.89 24.89-65.244 24.89-90.134 0-24.89-24.89-24.89-65.245 0-90.134z" fill="#e3a76f"/></g><g><path d="m182.69 0c-48.091 0-87.076 38.985-87.076 87.076 0 0-7.28 95.087 160.386 203.924l30-126-30-124.93c-15.486-24.102-42.533-40.07-73.31-40.07z" fill="#e06a50"/><path d="m416.386 87.076c0-48.091-38.985-87.076-87.076-87.076-30.777 0-57.824 15.968-73.31 40.07v250.93c167.666-108.836 160.386-203.924 160.386-203.924z" fill="#c53232"/></g></g></svg>