<svg xmlns="http://www.w3.org/2000/svg" xmlns:xlink="http://www.w3.org/1999/xlink" version="1.2" baseProfile="tiny" x="0px" y="0px" viewBox="0 0 100 125" xml:space="preserve"><path d="M7.5,92.5h85v-85h-85V92.5z M42.5,85h-5v-7.5h5V85z M52.5,85h-5v-7.5h5V85z M62.5,85h-5v-7.5h5V85z M72.5,85h-5v-7.5h5V85z   M77.5,15H85v7.5h-7.5V15z M77.5,27.5H85v5h-7.5V27.5z M77.5,37.5H85v5h-7.5V37.5z M77.5,47.5H85v5h-7.5V47.5z M77.5,57.5H85v5h-7.5  V57.5z M77.5,67.5H85v5h-7.5V67.5z M77.5,77.5H85V85h-7.5V77.5z M67.5,15h5v7.5h-5V15z M57.5,15h5v7.5h-5V15z M47.5,15h5v7.5h-5V15z   M37.5,15h5v7.5h-5V15z M27.5,15h5v7.5h-5V15z M27.5,27.5h45v45h-45V27.5z M27.5,77.5h5V85h-5V77.5z M15,15h7.5v7.5H15V15z M15,27.5  h7.5v5H15V27.5z M15,37.5h7.5v5H15V37.5z M15,47.5h7.5v5H15V47.5z M15,57.5h7.5v5H15V57.5z M15,67.5h7.5v5H15V67.5z M15,77.5h7.5V85  H15V77.5z"/><path d="M30.125,55.732l14.142,14.142l10.607-10.607L40.732,45.125L30.125,55.732z M44.268,62.803l-7.071-7.071l3.536-3.536  l7.071,7.071L44.268,62.803z"/><path d="M45.125,40.732l14.142,14.142l10.607-10.607L55.732,30.125L45.125,40.732z M59.268,47.803l-7.071-7.071l3.536-3.536  l7.071,7.071L59.268,47.803z"/></svg>