<svg xmlns="http://www.w3.org/2000/svg" xmlns:xlink="http://www.w3.org/1999/xlink" viewBox="0 0 100 125" version="1.1" x="0px" y="0px"><title>i9 copy 2</title><desc>Created with Sketch.</desc><g stroke="none" stroke-width="1" fill="none" fill-rule="evenodd"><path d="M13.7987099,85.226 C13.6607099,84.691 13.1107099,84.371 12.5807099,84.506 C12.0457099,84.644 11.7237099,85.189 11.8617099,85.724 L11.9967099,86.241 C12.1177099,86.687 12.5217099,86.98 12.9617099,86.98 C13.0487099,86.98 13.1367099,86.969 13.2237099,86.946 C13.7567099,86.801 14.0717099,86.252 13.9287099,85.719 L13.7987099,85.226 Z M18.1157099,66.536 C17.8017099,66.703 17.4827099,66.887 17.1617099,67.089 C16.6947099,67.384 16.5547099,68.001 16.8497099,68.468 C17.0397099,68.77 17.3637099,68.935 17.6957099,68.935 C17.8787099,68.935 18.0637099,68.885 18.2287099,68.781 C18.5057099,68.606 18.7817099,68.447 19.0557099,68.301 C19.5427099,68.042 19.7287099,67.437 19.4687099,66.949 C19.2097099,66.461 18.6037099,66.273 18.1157099,66.536 L18.1157099,66.536 Z M13.8507099,70.046 C13.6247099,70.332 13.4057099,70.635 13.1977099,70.954 C12.8957099,71.415 13.0257099,72.036 13.4877099,72.337 C13.6567099,72.448 13.8467099,72.5 14.0337099,72.5 C14.3607099,72.5 14.6807099,72.341 14.8717099,72.047 C15.0467099,71.78 15.2307099,71.526 15.4207099,71.285 C15.7627099,70.851 15.6887099,70.222 15.2547099,69.88 C14.8207099,69.539 14.1937099,69.614 13.8507099,70.046 L13.8507099,70.046 Z M12.1867099,82.396 C12.7367099,82.339 13.1357099,81.848 13.0787099,81.298 C13.0437099,80.962 13.0167099,80.636 12.9977099,80.316 C12.9657099,79.765 12.5197099,79.345 11.9417099,79.376 C11.3907099,79.409 10.9697099,79.881 11.0017099,80.433 C11.0227099,80.781 11.0517099,81.138 11.0887099,81.503 C11.1427099,82.018 11.5757099,82.401 12.0827099,82.401 C12.1167099,82.401 12.1517099,82.399 12.1867099,82.396 L12.1867099,82.396 Z M12.0347099,77.256 C12.0917099,77.266 12.1497099,77.271 12.2047099,77.271 C12.6837099,77.271 13.1067099,76.927 13.1897099,76.44 C13.2447099,76.119 13.3107099,75.807 13.3857099,75.506 C13.5207099,74.971 13.1947099,74.428 12.6577099,74.294 C12.1227099,74.156 11.5787099,74.485 11.4457099,75.022 C11.3597099,75.37 11.2817099,75.73 11.2187099,76.102 C11.1247099,76.646 11.4897099,77.163 12.0347099,77.256 L12.0347099,77.256 Z M26.9577099,64.652 C26.9577099,67.517 29.2887099,69.848 32.1537099,69.848 C35.0187099,69.848 37.3497099,67.517 37.3497099,64.652 C37.3497099,61.787 35.0187099,59.456 32.1537099,59.456 C29.2887099,59.456 26.9577099,61.787 26.9577099,64.652 L26.9577099,64.652 Z M22.4447099,67.024 C21.9787099,67.024 21.5617099,66.697 21.4657099,66.222 C21.3567099,65.68 21.7067099,65.153 22.2477099,65.043 C22.6217099,64.968 22.8377099,64.943 22.8377099,64.943 C22.8847099,64.938 22.9267099,64.954 22.9727099,64.955 C22.9697099,64.854 22.9577099,64.755 22.9577099,64.652 C22.9577099,59.573 27.0747099,55.456 32.1537099,55.456 C37.2327099,55.456 41.3497099,59.573 41.3497099,64.652 C41.3497099,69.731 37.2327099,73.848 32.1537099,73.848 C27.8427099,73.848 24.2347099,70.878 23.2397099,66.875 C23.1847099,66.891 23.1377099,66.921 23.0787099,66.928 C23.0597099,66.931 22.9027099,66.952 22.6447099,67.004 C22.5767099,67.018 22.5107099,67.024 22.4447099,67.024 L22.4447099,67.024 Z M89.6327099,44.789 L89.6327099,44.789 C89.6327099,48.474 86.6447099,51.462 82.9587099,51.462 L18.1067099,51.462 C14.4207099,51.462 11.4327099,48.474 11.4327099,44.789 L11.4327099,44.789 C11.4327099,41.103 14.4207099,38.115 18.1067099,38.115 L24.1517099,38.115 L24.1517099,35.381 C24.1517099,20.811 35.9627099,9 50.5327099,9 L50.5327099,9 C65.1027099,9 76.9137099,20.811 76.9137099,35.381 L76.9137099,38.115 L82.9587099,38.115 C86.6447099,38.115 89.6327099,41.103 89.6327099,44.789 L89.6327099,44.789 Z M77.0397099,78.715 C67.0497099,78.715 56.9507099,73.852 50.5617099,78.677 C45.5967099,73.12 34.6847099,78.715 24.0257099,78.715 C22.7117099,78.715 21.7827099,80.025 22.2927099,81.211 C24.8067099,87.053 30.6947099,91.158 37.5737099,91.158 C42.8267099,91.158 47.4967099,88.76 50.5327099,85.027 C53.5687099,88.76 58.2387099,91.158 63.4917099,91.158 C70.3707099,91.158 76.2587099,87.053 78.7727099,81.211 C79.2827099,80.025 78.3537099,78.715 77.0397099,78.715 L77.0397099,78.715 Z M58.2877099,64.781 C58.2877099,60.835 61.4857099,57.636 65.4317099,57.636 C69.3777099,57.636 72.5767099,60.835 72.5767099,64.781 C72.5767099,68.727 69.3777099,71.926 65.4317099,71.926 C61.4857099,71.926 58.2877099,68.727 58.2877099,64.781 L58.2877099,64.781 Z" fill="#000000"/></g><text x="0" y="115" fill="#000000" font-size="5px" font-weight="bold" font-family="'Helvetica Neue', Helvetica, Arial-Unicode, Arial, Sans-serif">Created by Ben Iconator</text><text x="0" y="120" fill="#000000" font-size="5px" font-weight="bold" font-family="'Helvetica Neue', Helvetica, Arial-Unicode, Arial, Sans-serif">from the Noun Project</text></svg>