<?xml version="1.0" encoding="iso-8859-1"?>
<!-- Generator: Adobe Illustrator 19.0.0, SVG Export Plug-In . SVG Version: 6.00 Build 0)  -->
<svg version="1.1" id="Capa_1" xmlns="http://www.w3.org/2000/svg" xmlns:xlink="http://www.w3.org/1999/xlink" x="0px" y="0px"
	 viewBox="0 0 511.986 511.986" style="enable-background:new 0 0 511.986 511.986;" xml:space="preserve">
<g>
	<path style="fill:#FFB69E;" d="M250.092,353.341l-97.425-10.63c-12.952-1.413-22.307-13.059-20.894-26.011
		c1.413-12.953,13.053-22.318,26.011-20.894l60.205,6.568l-14.328-40.814c-4.316-12.294,2.152-25.759,14.445-30.074
		c12.294-4.316,25.759,2.152,30.074,14.445l26.73,76.142C280.655,338.435,267.328,355.223,250.092,353.341z"/>
	<path style="fill:#FFB69E;" d="M281.216,465.6c-12.279-4.36-18.698-17.848-14.339-30.125l34.44-96.997l-57.587-90.445
		c-6.998-10.991-3.761-25.573,7.229-32.571c10.989-6.999,25.573-3.761,32.571,7.229l63.771,100.157
		c3.903,6.129,4.763,13.716,2.332,20.564l-38.291,107.848C307.001,463.484,293.546,469.978,281.216,465.6z"/>
	<path style="fill:#FFB69E;" d="M228.437,209.301l-44.857-83.863c-6.43-12.019,1.053-26.813,14.564-28.736l83.437-11.88
		c10.746-1.527,20.704,5.943,22.235,16.692c1.531,10.749-5.943,20.704-16.692,22.235l-55.62,7.918l31.606,59.087
		c5.121,9.575,1.511,21.488-8.063,26.608C245.472,222.484,233.559,218.877,228.437,209.301z"/>
</g>
<path style="fill:#6EAA50;" d="M303.815,101.513c-1.531-10.749-11.488-18.219-22.235-16.692l-47.421,6.752l10.8,38.179l42.164-6.003
	C297.872,122.217,305.345,112.263,303.815,101.513z"/>
<path style="fill:#3C5A73;" d="M270.439,309.337l-22.259-63.406c-4.316-12.294-17.781-18.762-30.074-14.445
	c-12.294,4.316-18.761,17.781-14.445,30.074l14.328,40.814L270.439,309.337z"/>
<path style="fill:#FA503C;" d="M190.324,346.231c-0.435,3.994-4.007,6.891-8.005,6.494l-30.415-3.024
	c-16.813-1.834-28.955-16.951-27.121-33.764c1.834-16.813,16.947-28.953,33.764-27.121l30.275,3.01
	c1.945,0.194,3.732,1.156,4.964,2.674c1.231,1.518,1.804,3.465,1.593,5.408L190.324,346.231z"/>
<path style="fill:#3C5A73;" d="M295.514,329.364l43.184-20.027l-55.169-86.646c-6.998-10.99-21.582-14.228-32.571-7.229
	c-10.991,6.998-14.227,21.581-7.229,32.571L295.514,329.364z"/>
<path style="fill:#FA503C;" d="M275.067,482.912c-17.753-6.304-27.036-25.805-20.732-43.56l14.586-41.08
	c1.353-3.811,5.541-5.805,9.352-4.452l50.488,17.926c3.811,1.353,5.805,5.541,4.452,9.352l-14.586,41.08
	C312.355,479.843,292.907,489.245,275.067,482.912z"/>
<path style="fill:#82BE50;" d="M204.364,244.158l53.779-140.681c5.78-15.118,22.717-22.691,37.837-16.917l48.846,18.651
	c15.124,5.775,22.703,22.717,16.928,37.841L313.42,269.64L204.364,244.158z"/>
<g>
	<circle style="fill:#FFB69E;" cx="348.498" cy="43.397" r="43.397"/>
	<path style="fill:#FFB69E;" d="M393.921,249.251l-76.073-19.553c-6.377-1.64-11.508-6.36-13.674-12.579l-31.472-90.426
		c-3.57-10.255,1.851-21.461,12.105-25.03c10.252-3.576,21.461,1.851,25.03,12.105l28.007,80.47l65.864,16.929
		c10.517,2.703,16.85,13.419,14.146,23.935C415.156,245.607,404.445,251.957,393.921,249.251z"/>
</g>
<path style="fill:#6EAA50;" d="M288.059,170.82l37.935-10.629l-16.158-46.422c-3.569-10.255-14.778-15.681-25.03-12.105
	c-10.255,3.57-15.675,14.776-12.105,25.03L288.059,170.82z"/>
<g>
	<circle style="fill:#3C5A73;" cx="243.55" cy="475.479" r="14.08"/>
	<circle style="fill:#3C5A73;" cx="273.846" cy="487.362" r="14.08"/>
	<circle style="fill:#3C5A73;" cx="304.222" cy="497.906" r="14.08"/>
	<circle style="fill:#3C5A73;" cx="131.253" cy="275.969" r="14.08"/>
	<circle style="fill:#3C5A73;" cx="117.853" cy="305.516" r="14.08"/>
	<circle style="fill:#3C5A73;" cx="107.588" cy="336.161" r="14.08"/>
</g>
<g>
	<path style="fill:#55879B;" d="M320.915,496.122c-1.14,0-2.301-0.188-3.439-0.584l-84.762-29.478
		c-5.461-1.899-8.348-7.866-6.449-13.327s7.867-8.348,13.327-6.449l84.762,29.478c5.461,1.899,8.348,7.866,6.45,13.327
		C329.299,493.412,325.248,496.122,320.915,496.122z"/>
	<path style="fill:#55879B;" d="M116.763,364.119c-5.436-1.97-8.245-7.974-6.275-13.41l30.582-84.37
		c1.97-5.436,7.974-8.245,13.41-6.275c5.436,1.97,8.245,7.974,6.275,13.409l-30.582,84.37
		C128.197,363.297,122.183,366.084,116.763,364.119z"/>
</g>
<g>
</g>
<g>
</g>
<g>
</g>
<g>
</g>
<g>
</g>
<g>
</g>
<g>
</g>
<g>
</g>
<g>
</g>
<g>
</g>
<g>
</g>
<g>
</g>
<g>
</g>
<g>
</g>
<g>
</g>
</svg>
