<?xml version="1.0" encoding="iso-8859-1"?>
<!-- Generator: Adobe Illustrator 19.0.0, SVG Export Plug-In . SVG Version: 6.00 Build 0)  -->
<svg version="1.1" id="Capa_1" xmlns="http://www.w3.org/2000/svg" xmlns:xlink="http://www.w3.org/1999/xlink" x="0px" y="0px"
	 viewBox="0 0 463.496 463.496" style="enable-background:new 0 0 463.496 463.496;" xml:space="preserve">
<path style="fill:#FBB540;" d="M97.496,179.748H66.4c-5.059,0.581-9.664-2.962-10.4-8v-32c1.468-10.058,10.651-17.138,20.752-16
	h20.744V179.748z"/>
<path style="fill:#B9B9B9;" d="M304,75.748h16v248h-16V75.748z"/>
<path style="fill:#FDC9A6;" d="M256.264,182.948c-1.162,0.002-2.321-0.121-3.456-0.368c-3.427-0.64-6.437-2.667-8.32-5.6
	l-45.264-50.4c-3.116-2.937-4.857-7.046-4.8-11.328c0.04-4.377,1.925-8.534,5.192-11.448c6.578-5.901,16.693-5.352,22.594,1.226
	c0.002,0.002,0.004,0.004,0.006,0.006l37.656,41.248l35.472-23.2c7.44-4.767,17.337-2.6,22.104,4.84s2.6,17.337-4.84,22.104
	l-47.728,30.4C262.306,182.071,259.317,182.945,256.264,182.948z"/>
<path style="fill:#F6BB92;" d="M208,91.748h-16c-13.255,0-24-10.745-24-24v-40c0-13.255,10.745-24,24-24h16
	c13.255,0,24,10.745,24,24v40C232,81.003,221.255,91.748,208,91.748z"/>
<path style="fill:#DC4D41;" d="M232,27.748c0-13.255-10.745-24-24-24h-16c-13.255,0-24,10.745-24,24v16h64V27.748z"/>
<path style="fill:#F6BB92;" d="M168,43.748v24c0,13.255,10.745,24,24,24h16c13.255,0,24-10.745,24-24v-24H168z"/>
<path style="fill:#D68F29;" d="M88,67.748h64v112H88V67.748z"/>
<path style="fill:#B47923;" d="M88,67.748h64v16H88V67.748z"/>
<circle style="fill:#79A73A;" cx="120" cy="35.748" r="32"/>
<path style="fill:#89B140;" d="M120,47.748c-6.627,0-12-5.373-12-12s5.373-12,12-12s12,5.373,12,12S126.627,47.748,120,47.748z"/>
<path style="fill:#B47923;" d="M88,179.748h64l0,0v16c0,8.837-7.163,16-16,16h-32c-8.837,0-16-7.163-16-16V179.748L88,179.748z"/>
<path style="fill:#6C7175;" d="M217.28,275.748L240,291.98v47.768c0,8.837,7.163,16,16,16s16-7.163,16-16v-56
	c-0.002-5.167-2.499-10.014-6.704-13.016L224,235.748v-32h-72v28c0.032,0.78,0.11,1.557,0.232,2.328
	c-0.133,0.794-0.21,1.596-0.232,2.4c0,3.08,0,11.2,22.544,66.912l-29.168,68.8c-3.601,8.36-0.034,18.076,8.12,22.12
	c2.036,0.953,4.256,1.445,6.504,1.44c6.435-0.073,12.2-3.994,14.632-9.952l32-75.456c1.791-4.274,1.817-9.083,0.072-13.376
	c-3-7.336-5.856-14.504-8.464-21.216H217.28z"/>
<path style="fill:#428DC5;" d="M224,219.748h-72v-128h56c8.837,0,16,7.163,16,16V219.748z"/>
<g>
	<path style="fill:#DBDBDB;" d="M240,339.748h40c8.837,0,16,7.163,16,16v16l0,0h-56l0,0V339.748L240,339.748z"/>
	<path style="fill:#DBDBDB;" d="M144,379.748h40c8.837,0,16,7.163,16,16v16l0,0h-56l0,0V379.748L144,379.748z"/>
</g>
<g>
	<path style="fill:#B9B9B9;" d="M296,291.748h32v16h-32V291.748z"/>
	<path style="fill:#B9B9B9;" d="M200,203.66L23.432,379.748"/>
	<path style="fill:#B9B9B9;" d="M17.778,374.077l176.572-176.086l11.298,11.329L29.076,385.406L17.778,374.077z"/>
	<path style="fill:#B9B9B9;" d="M29.288,351.188l22.472,23.04"/>
	<path style="fill:#B9B9B9;" d="M23.558,356.767l11.455-11.171l22.471,23.041l-11.455,11.171L23.558,356.767z"/>
</g>
<path style="fill:#F6BB92;" d="M170.4,252.1c-5.05-0.019-9.795-2.421-12.8-6.48l-33.92-45.76
	c-4.657-6.285-4.142-15.004,1.224-20.696l47.544-50.312c6.022-6.406,16.097-6.718,22.504-0.696c0.059,0.056,0.118,0.112,0.176,0.168
	c6.332,6.153,6.559,16.247,0.512,22.68l-38.248,40.488l25.808,34.904c5.24,7.107,3.816,17.103-3.2,22.464
	C177.242,250.964,173.869,252.102,170.4,252.1L170.4,252.1z"/>
<path style="fill:#804D35;" d="M0,427.748v32l463.496-0.504V227.748L424,274.412l-43.48,32.616c-2.993,2.239-5.569,4.987-7.608,8.12
	l-29.808,45.712c-4.431,6.793-11.993,10.889-20.104,10.888h-30.056c-15.866,0.006-30.985,6.743-41.6,18.536l-9.776,10.872
	c-6.076,6.75-14.734,10.601-23.816,10.592H97.328c-0.882-0.001-1.762,0.072-2.632,0.216L0,427.748z"/>
<g>
	<path style="fill:#5B3726;" d="M400,379.748h16v16h-16V379.748z"/>
	<path style="fill:#5B3726;" d="M424,355.748h16v16h-16V355.748z"/>
	<path style="fill:#5B3726;" d="M376,355.748h16v16h-16V355.748z"/>
	<path style="fill:#5B3726;" d="M288,395.748h16v16h-16V395.748z"/>
	<path style="fill:#5B3726;" d="M264,419.748h16v16h-16V419.748z"/>
	<path style="fill:#5B3726;" d="M312,419.748h16v16h-16V419.748z"/>
	<path style="fill:#5B3726;" d="M96,427.748h16v16H96V427.748z"/>
	<path style="fill:#5B3726;" d="M168,427.748h16v16h-16V427.748z"/>
</g>
<path style="fill:#C7463B;" d="M168,35.748h80v16h-80V35.748z"/>
<path style="fill:#EAB28B;" d="M168,51.748h64v16h-64V51.748z"/>
<g>
</g>
<g>
</g>
<g>
</g>
<g>
</g>
<g>
</g>
<g>
</g>
<g>
</g>
<g>
</g>
<g>
</g>
<g>
</g>
<g>
</g>
<g>
</g>
<g>
</g>
<g>
</g>
<g>
</g>
</svg>
